<?xml version="1.0" encoding="UTF-8" standalone="no"?>
<!-- Created with Inkscape (http://www.inkscape.org/) -->

<svg
   version="1.1"
   id="svg1"
   width="605"
   height="304.02344"
   viewBox="0 0 605 304.02344"
   xmlns="http://www.w3.org/2000/svg"
   xmlns:svg="http://www.w3.org/2000/svg">
  <defs
     id="defs1" />
  <g
     id="g1"
     transform="translate(-223.90091,-358.55601)">
    <path
       id="path70"
       style="fill:#00b9ea"
       d="m 654.97904,358.55601 -31.82422,30.76172 c -17.50309,16.91925 -42.83319,41.32543 -56.28907,54.23633 -60.26408,57.82332 -93.00254,90.15765 -92.35156,91.21094 0.27717,0.44848 13.75277,0.81445 29.94532,0.81445 27.68391,0 29.4414,0.10821 29.4414,1.80078 0,0.99 -0.41087,2.2275 -0.91211,2.75 -0.96359,1.00446 -7.83035,12.19654 -69.25781,112.86524 -2.65636,4.3533 -4.83008,8.2908 -4.83008,8.75 0,0.45919 0.22769,0.83398 0.50586,0.83398 0.27817,0 10.94789,-9.5625 23.71094,-21.25 12.76305,-11.6875 27.93809,-25.525 33.72265,-30.75 5.78457,-5.225 17.75909,-16.25 26.60938,-24.5 8.8503,-8.25 32.14756,-29.7767 51.77148,-47.83789 19.62392,-18.06118 35.67969,-33.18337 35.67969,-33.60351 0,-1.17971 -16.85002,-2.02596 -33.84961,-1.70118 -11.86808,0.22675 -15.46078,-8.3e-4 -15.8457,-1.0039 -0.27378,-0.71348 3.74689,-7.27338 8.93359,-14.57617 21.53113,-30.31546 41.78183,-58.66993 57.8711,-81.02735 l 17.09179,-23.75 h 19.29297 c 16.47115,0 19.37885,0.22661 19.88477,1.54492 0.74699,1.94673 0.75653,198.06566 0.01,201.04102 -0.3028,1.20645 -2.87559,3.77576 -5.71875,5.71094 -12.27561,8.35531 -32.09201,20.70312 -33.22461,20.70312 -0.67783,0 -1.50405,-0.71204 -1.83789,-1.58203 -0.33385,-0.86998 -0.60742,-26.33118 -0.60742,-56.58203 0,-36.19637 -0.34239,-54.88734 -1,-54.66797 -0.5496,0.18333 -19.6746,18.54537 -42.5,40.80664 l -41.5,40.47656 v 5.27344 c 0,3.56046 0.40628,5.27072 1.25,5.26172 0.6875,-0.007 13.85,-9.18111 29.25,-20.38672 15.4,-11.20562 28.26941,-20.21412 28.59961,-20.01953 0.3302,0.1946 0.90056,18.93082 1.26758,41.63672 0.89125,55.13807 1.43561,65.07202 3.5293,64.51172 0.88206,-0.23605 16.45351,-9.99255 34.60351,-21.67969 51.29359,-33.02893 51.49242,-33.16352 52.04102,-35.44141 0.2791,-1.1587 0.38322,-55.65742 0.23242,-121.10742 l -0.27344,-119 -36.71094,-0.26172 z m -294.22071,0.041 c -32.50148,-0.0155 -36.71162,0.16144 -37.25,1.56445 -0.87562,2.28182 -0.7198,238.69743 0.15821,240.04688 0.40408,0.62104 15.80937,10.78137 34.23437,22.57812 18.425,11.79676 37.775,24.21696 43,27.59961 5.225,3.38266 9.95,6.01112 10.5,5.8418 1.59196,-0.49009 2.2865,-19.79147 2.48242,-68.89063 0.10732,-26.89436 0.56668,-45.97858 1.11328,-46.3164 1.05945,-0.65477 2.10417,0.219 26.36914,22.05859 31.15018,28.03658 31.77609,28.54525 33.39844,27.20117 0.79736,-0.66059 4.0609,-4.75844 7.25391,-9.10742 3.9064,-5.32063 5.5463,-8.37051 5.01367,-9.32226 -0.76542,-1.36774 -3.78879,-4.17625 -35.79102,-33.25586 -8.16247,-7.41704 -16.63984,-15.12767 -18.83984,-17.13477 -21.38469,-19.50965 -40.19226,-35.88086 -41.22266,-35.88086 -1.00007,0 -1.31552,13.13031 -1.51953,63.25 -0.23574,57.91451 -0.39637,63.23936 -1.89843,63.12891 -1.80007,-0.13237 -36.95722,-22.58708 -38.75391,-24.75196 -0.80778,-0.9733 -1.04588,-29.2903 -0.86133,-102.73437 l 0.25586,-101.39258 19.5,-0.25976 19.5,-0.25977 48.18555,47.50977 c 26.50247,26.13029 48.58652,47.50976 49.07617,47.50976 1.2042,0 16.23828,-15.51317 16.23828,-16.75586 0,-0.54219 -17.20392,-17.80672 -38.23047,-38.36523 -21.02656,-20.55846 -44.31406,-43.33341 -51.75,-50.61133 l -13.51953,-13.2324 z m 407.64258,37.19922 -21,0.2832 -0.28125,11.75 -0.2832,11.75 h 9.84179 c 6.29841,0 10.45202,0.44994 11.54102,1.25 1.5763,1.15821 1.68251,6.06005 1.44141,66.75 l -0.25977,65.5 -9,0.25 c -14.58351,0.40478 -13.5,-0.62217 -13.5,12.78711 v 11.5 l 23.25,-0.26758 23.25,-0.26953 0.25586,-90.22851 0.25391,-90.23047 -2.25391,-0.55274 c -1.2404,-0.30439 -11.70586,-0.42712 -23.25586,-0.27148 z m -509,0.2832 -0.25586,90.75 -0.25586,90.75 h 22.8711 22.86914 l 0.59179,-4.32226 c 0.3259,-2.37776 0.32197,-7.5606 -0.01,-11.51758 -0.70054,-8.35598 -0.17008,-8.02051 -13.31055,-8.40821 l -8.5,-0.25195 -0.25781,-65.93555 c -0.20322,-52.08726 0.007,-66.10383 1,-66.73437 0.69149,-0.439 5.6591,-0.80645 11.03906,-0.81445 l 9.78125,-0.0156 -0.28125,-11.75 -0.28125,-11.75 h -22.5 z m -35.5,65.42969 v 28.07031 28.07031 l 10.25,-0.28515 10.25,-0.28516 v -27.5 -27.5 l -10.25,-0.28515 z m 584.27734,0.0703 -0.6289,5.25 c -0.8084,6.73061 -0.84212,47.08037 -0.041,49.16797 0.4963,1.29328 2.39148,1.58203 10.39258,1.58203 8.0011,0 9.89638,-0.28875 10.39258,-1.58203 0.3339,-0.86998 0.60742,-12.75794 0.60742,-26.41797 0,-13.66003 -0.27352,-25.54799 -0.60742,-26.41797 -0.4961,-1.29278 -2.38963,-1.58203 -10.36133,-1.58203 z" />
  </g>
</svg>
